# xmcd CD database file
#
# Track frame offsets:
#	150
#	10199
#	28907
#	41119
#	54066
#	67726
#	82891
#	94464
#	107508
#	121364
#	134827
#	144701
#	152488
#	166585
#	180452
#	192473
#	205455
#	216808
#	229852
#	242155
#
# Disc length: 3385 seconds
#
# Revision: 1
# Processed by: cddbd v1.5.2PL0 Copyright (c) Steve Scherf et al.
# Submitted via: CDex 1.51
#
DISCID=140d3714
DTITLE=Diverse Artiesten - Country Highlights - CD 2
DYEAR=2004
DGENRE=Country
TTITLE0=01. Don Williams - Take My Hand For A While
TTITLE1=02. Doug Ashdown - Winter In America
TTITLE2=03. Crystal Gayle - Don't It Make My Brown Eyes Blue
TTITLE3=04. Johnny Paycheck - Take This Job And Shove It
TTITLE4=05. Porter Wagoner - Green Green Grass Of Home
TTITLE5=06. Billie Jo Spears - Blanket On The Ground
TTITLE6=07. Patsy Cline - Walkin' After Midnight
TTITLE7=08. Charlie Rich - Most Beautiful Girl In The World
TTITLE8=09. Lee Greenwood - Dixie Road
TTITLE9=10. Patti Page - Tennessee Walz
TTITLE10=11. Boxcar Willie - King Of The Road
TTITLE11=12. Roger Miller - Dang Me
TTITLE12=13. Lee Greenwood - I.O.U.
TTITLE13=14. George Jones - A Good Year For The Roses
TTITLE14=15. Jean Shepard and Ferlin Huskey - Dear John Letter
TTITLE15=16. Kenny Rogers - Ruby, Don't Take Your Love To Town
TTITLE16=17. Freddy Fender - Before The Next Tear Drop Falls
TTITLE17=18. Johnny Tillotson - Send Me The Pillow That You Dream On
TTITLE18=19. Charlie Rich - Behind Closed Doors
TTITLE19=20. Skeeter Davis - End Of The World
EXTD=YEAR: 2004
EXTT0=
EXTT1=
EXTT2=
EXTT3=
EXTT4=
EXTT5=
EXTT6=
EXTT7=
EXTT8=
EXTT9=
EXTT10=
EXTT11=
EXTT12=
EXTT13=
EXTT14=
EXTT15=
EXTT16=
EXTT17=
EXTT18=
EXTT19=
PLAYORDER=
